<?xml version="1.0" encoding="UTF-8"?>
<!DOCTYPE svg PUBLIC "-//W3C//DTD SVG 1.1//EN" "http://www.w3.org/Graphics/SVG/1.1/DTD/svg11.dtd">
<svg xmlns="http://www.w3.org/2000/svg" version="1.1" width="800px" height="800px" style="shape-rendering:geometricPrecision; text-rendering:geometricPrecision; image-rendering:optimizeQuality; fill-rule:evenodd; clip-rule:evenodd" xmlns:xlink="http://www.w3.org/1999/xlink">
<g><path style="opacity:0.998" fill="#f7931a" d="M 371.5,-0.5 C 390.167,-0.5 408.833,-0.5 427.5,-0.5C 547.491,10.7345 644.658,63.4012 719,157.5C 766.04,221.107 792.874,292.44 799.5,371.5C 799.5,389.833 799.5,408.167 799.5,426.5C 788.394,548.906 734.394,647.406 637.5,722C 574.749,767.198 504.749,793.031 427.5,799.5C 408.833,799.5 390.167,799.5 371.5,799.5C 253.507,788.428 157.34,737.095 83,645.5C 34.0203,581.079 6.18699,508.413 -0.5,427.5C -0.5,408.833 -0.5,390.167 -0.5,371.5C 10.9007,249.504 64.9007,151.337 161.5,77C 224.252,31.8019 294.252,5.9686 371.5,-0.5 Z"/></g>
<g><path style="opacity:1" fill="#fffefd" d="M 382.5,139.5 C 397,142.041 411.333,145.375 425.5,149.5C 421.256,172.897 415.923,196.23 409.5,219.5C 421.025,222.965 432.692,225.965 444.5,228.5C 450.167,205.167 455.833,181.833 461.5,158.5C 475.943,161.694 490.276,165.361 504.5,169.5C 504.833,170 505.167,170.5 505.5,171C 499.115,194.369 493.615,217.869 489,241.5C 509.155,248.494 527.988,257.994 545.5,270C 576.01,294.52 584.51,325.353 571,362.5C 562.316,386.514 545.483,401.347 520.5,407C 565.864,431.746 578.697,468.246 559,516.5C 545.983,553.098 520.15,573.598 481.5,578C 455.851,579.641 430.517,577.975 405.5,573C 398.954,597.017 392.954,621.183 387.5,645.5C 372.885,642.221 358.385,638.555 344,634.5C 348.845,611.116 354.345,587.782 360.5,564.5C 360.392,563.558 360.059,562.725 359.5,562C 348.057,559.473 336.724,556.639 325.5,553.5C 320.623,577.342 314.956,601.009 308.5,624.5C 307.833,624.833 307.167,625.167 306.5,625.5C 292.557,621.847 278.557,618.514 264.5,615.5C 270.186,590.756 276.186,566.09 282.5,541.5C 253.488,534.497 224.488,527.33 195.5,520C 195.043,519.586 194.709,519.086 194.5,518.5C 201.5,501.839 209,485.506 217,469.5C 230.565,474.023 244.398,476.523 258.5,477C 264.259,474.342 267.759,469.842 269,463.5C 285.091,397.637 301.257,331.804 317.5,266C 317.049,257.433 313.049,251.099 305.5,247C 292.403,242.559 279.069,239.059 265.5,236.5C 268.362,221.048 271.862,205.715 276,190.5C 276.561,189.978 277.228,189.645 278,189.5C 307.031,197.216 336.198,204.216 365.5,210.5C 371.009,186.798 376.675,163.132 382.5,139.5 Z"/></g>
<g><path style="opacity:1" fill="#f7931c" d="M 397.5,272.5 C 421.151,276.55 443.818,283.717 465.5,294C 489.865,307.56 496.365,327.06 485,352.5C 477.764,363.373 467.597,369.54 454.5,371C 444.5,371.667 434.5,371.667 424.5,371C 407.982,368.287 391.649,364.787 375.5,360.5C 382.525,331.067 389.858,301.733 397.5,272.5 Z"/></g>
<g><path style="opacity:1" fill="#f7931b" d="M 364.5,404.5 C 393.768,409.317 421.768,418.15 448.5,431C 461.723,437.936 470.889,448.436 476,462.5C 478.734,494.111 464.234,511.611 432.5,515C 415.307,516.211 398.307,514.878 381.5,511C 367.771,507.688 354.104,504.188 340.5,500.5C 348.822,468.543 356.822,436.543 364.5,404.5 Z"/></g>
</svg>
